<svg width="36" height="13" viewBox="0 0 36 13" fill="none" xmlns="http://www.w3.org/2000/svg">
<g clip-path="url(#clip0_225_1301)">
<path d="M0.548003 10.759H0V7.47137H3.48315C3.63043 7.47137 3.77098 7.49823 3.90555 7.55194C4.03937 7.60565 4.15675 7.67915 4.25768 7.77314C4.35786 7.86643 4.4386 7.97526 4.49916 8.09894C4.55972 8.22261 4.58962 8.35406 4.58962 8.49328C4.58962 8.63251 4.55822 8.7689 4.49692 8.89258C4.43486 9.01625 4.35188 9.12438 4.24796 9.21766C4.14404 9.31095 4.02367 9.38374 3.88611 9.43604C3.74855 9.48834 3.6065 9.51448 3.45922 9.51448H0.548003V10.759ZM3.46745 9.00565C3.54445 9.00565 3.61772 8.99222 3.68575 8.96537C3.75453 8.93851 3.81434 8.90176 3.86667 8.85583C3.91826 8.80989 3.96162 8.75618 3.99452 8.69399C4.02816 8.6325 4.0461 8.56466 4.04984 8.49187C4.04685 8.4219 4.02816 8.35618 3.99452 8.2947C3.96087 8.23321 3.91751 8.17879 3.86368 8.13286C3.80986 8.08692 3.7478 8.05017 3.67753 8.02332C3.60725 7.99646 3.53324 7.98304 3.45623 7.98304H0.548003V9.00424H3.46819L3.46745 9.00565Z" fill="url(#paint0_linear_225_1301)"/>
<path d="M6.38763 8.23109C6.30688 8.31025 6.24334 8.40071 6.19698 8.50177C6.14988 8.60353 6.12671 8.71237 6.12671 8.82968V8.85371H9.89619V9.37668H6.12671V9.40071C6.12671 9.51449 6.14988 9.62261 6.19698 9.72367C6.24408 9.82544 6.30838 9.91378 6.39062 9.9894C6.47285 10.065 6.56855 10.1258 6.67695 10.1696C6.78611 10.2141 6.90049 10.236 7.02086 10.236H9.89544V10.759H7.02086C6.81975 10.759 6.63135 10.723 6.45566 10.6495C6.27997 10.576 6.12671 10.4784 5.99587 10.3548C5.86504 10.2311 5.76187 10.0862 5.68711 9.92014C5.61235 9.75406 5.57422 9.57738 5.57422 9.39011V8.82968C5.57422 8.63958 5.61235 8.46219 5.6901 8.29753C5.7671 8.13286 5.87102 7.98869 6.00186 7.86502C6.13269 7.74134 6.28595 7.64382 6.46164 7.57314C6.63733 7.50247 6.82423 7.46643 7.02235 7.46643H9.89694V7.98445H7.02235C6.89526 7.98445 6.77788 8.00636 6.67023 8.05088C6.56257 8.09541 6.46912 8.15548 6.38837 8.23109H6.38763Z" fill="url(#paint1_linear_225_1301)"/>
<path d="M14.9773 7.86572C15.1081 7.99223 15.212 8.13781 15.289 8.30247C15.366 8.46714 15.4049 8.64311 15.4049 8.82968V10.7583H14.8524V9.32862H11.4552V10.7583H10.9072V8.82968C10.9072 8.63958 10.9454 8.46219 11.0231 8.29753C11.1001 8.13286 11.204 7.98869 11.3349 7.86502C11.4657 7.74134 11.6182 7.64382 11.7924 7.57314C11.9666 7.50177 12.1528 7.46643 12.3501 7.46643H13.9583C14.1556 7.46643 14.3418 7.50177 14.516 7.57314C14.6902 7.64452 14.8442 7.74205 14.978 7.86502L14.9773 7.86572ZM12.3389 7.98445C12.2215 7.98445 12.1101 8.00636 12.0047 8.05088C11.8993 8.09541 11.8066 8.15477 11.7259 8.22897C11.6451 8.30318 11.5808 8.39081 11.5322 8.49046C11.4836 8.59011 11.4575 8.69541 11.4545 8.80636H14.8517C14.8479 8.69541 14.8225 8.59011 14.7739 8.49046C14.7253 8.39081 14.661 8.30389 14.5803 8.22897C14.4995 8.15477 14.4061 8.09541 14.2992 8.05088C14.1915 8.00636 14.0779 7.98445 13.9575 7.98445H12.3389Z" fill="url(#paint2_linear_225_1301)"/>
<path d="M20.4506 8.60707C20.3399 8.80001 20.1941 8.95831 20.0132 9.08198C20.1941 9.20849 20.3399 9.36962 20.4506 9.56396C20.5612 9.75902 20.6165 9.96891 20.6165 10.1936V10.759H20.0633V10.1936C20.0633 10.0763 20.0394 9.96608 19.9908 9.86361C19.9422 9.76043 19.8779 9.67138 19.7971 9.59506C19.7164 9.51873 19.6222 9.45866 19.513 9.41485C19.4039 9.37032 19.2873 9.34842 19.1639 9.34842H16.8418V10.7597H16.2886V7.42969H16.8418V8.82191H19.1639C19.288 8.82191 19.4039 8.80001 19.513 8.75548C19.6215 8.71096 19.7171 8.65089 19.7994 8.57527C19.8816 8.49895 19.9459 8.4099 19.993 8.30672C20.0401 8.20354 20.0633 8.094 20.0633 7.97668V7.43039H20.6165V7.97668C20.6165 8.20495 20.5612 8.41555 20.4506 8.60849V8.60707Z" fill="url(#paint3_linear_225_1301)"/>
<path d="M35.8339 8.60707C35.7232 8.80001 35.5774 8.95831 35.3965 9.08198C35.5774 9.20849 35.7232 9.36962 35.8339 9.56396C35.9445 9.75902 35.9998 9.96891 35.9998 10.1936V10.759H35.4466V10.1936C35.4466 10.0763 35.4227 9.96608 35.3741 9.86361C35.3255 9.76043 35.2612 9.67138 35.1804 9.59506C35.0997 9.51873 35.0055 9.45866 34.8963 9.41485C34.7872 9.37032 34.6706 9.34842 34.5472 9.34842H32.2251V10.7597H31.6719V7.42969H32.2251V8.82191H34.5472C34.6713 8.82191 34.7872 8.80001 34.8963 8.75548C35.0047 8.71096 35.1004 8.65089 35.1827 8.57527C35.2649 8.49895 35.3292 8.4099 35.3763 8.30672C35.4234 8.20354 35.4466 8.094 35.4466 7.97668V7.43039H35.9998V7.97668C35.9998 8.20495 35.9445 8.41555 35.8339 8.60849V8.60707Z" fill="url(#paint4_linear_225_1301)"/>
<path d="M25.9633 7.98445H24.0838V10.759H23.5358V7.98445H21.6562V7.46643H25.9633V7.98445Z" fill="url(#paint5_linear_225_1301)"/>
<path d="M27.2138 8.23109C27.1331 8.31025 27.0695 8.40071 27.0232 8.50177C26.9761 8.60353 26.9529 8.71237 26.9529 8.82968V8.85371H30.7224V9.37668H26.9529V9.40071C26.9529 9.51449 26.9761 9.62261 27.0232 9.72367C27.0703 9.82544 27.1345 9.91378 27.2168 9.9894C27.299 10.065 27.3947 10.1258 27.5031 10.1696C27.6115 10.2141 27.7267 10.236 27.847 10.236H30.7216V10.759H27.847C27.6459 10.759 27.4575 10.723 27.2818 10.6495C27.1061 10.576 26.9529 10.4784 26.822 10.3548C26.6912 10.2311 26.588 10.0862 26.5133 9.92014C26.4378 9.75406 26.4004 9.57738 26.4004 9.39011V8.82968C26.4004 8.63958 26.4385 8.46219 26.5163 8.29753C26.5933 8.13286 26.6972 7.98869 26.828 7.86502C26.9589 7.74134 27.1121 7.64382 27.2878 7.57314C27.4635 7.50247 27.6504 7.46643 27.8485 7.46643H30.7231V7.98445H27.8485C27.7214 7.98445 27.6041 8.00636 27.4964 8.05088C27.3895 8.09541 27.2953 8.15548 27.2153 8.23109H27.2138Z" fill="url(#paint6_linear_225_1301)"/>
<path d="M5.39463 12.5647C5.37668 12.5823 5.35575 12.5972 5.33257 12.6092C5.3094 12.6212 5.28473 12.6311 5.25931 12.6382C5.28099 12.6657 5.30416 12.6947 5.32809 12.7251C5.35201 12.7555 5.37668 12.7859 5.40061 12.817C5.42528 12.8474 5.4492 12.8777 5.47238 12.9081C5.49555 12.9378 5.51798 12.9654 5.53892 12.9915H5.34379L5.07539 12.6523H4.33077V12.9915H4.17676V12.0657H5.16885C5.23464 12.0657 5.29445 12.082 5.34678 12.1138C5.39089 12.1399 5.42603 12.1739 5.45294 12.217C5.47911 12.2601 5.49256 12.3074 5.49256 12.3576C5.49256 12.3986 5.48434 12.4368 5.46714 12.4714C5.44995 12.5067 5.42603 12.5378 5.39537 12.5654V12.564L5.39463 12.5647ZM4.33077 12.5046H5.17258C5.19426 12.5046 5.2152 12.5011 5.23538 12.4933C5.25557 12.4855 5.27351 12.4749 5.28846 12.4622C5.30342 12.4488 5.31538 12.4332 5.32435 12.4156C5.33332 12.3979 5.33781 12.3788 5.33781 12.3583C5.33781 12.3378 5.33332 12.3187 5.3236 12.3011C5.31388 12.2834 5.30192 12.2679 5.28622 12.2544C5.27052 12.241 5.25258 12.2304 5.23239 12.2233C5.21221 12.2163 5.19053 12.212 5.1681 12.212H4.33002V12.506L4.33077 12.5046Z" fill="url(#paint7_linear_225_1301)"/>
<path d="M6.11546 12.9908C6.05864 12.9908 6.00631 12.9809 5.95622 12.9604C5.90687 12.9407 5.86351 12.9131 5.82688 12.8785C5.79025 12.8438 5.76109 12.8028 5.74016 12.7562C5.71922 12.7096 5.70801 12.6594 5.70801 12.6057V12.4481C5.70801 12.3958 5.71847 12.3456 5.74016 12.299C5.76109 12.2523 5.79025 12.2113 5.82688 12.1767C5.86351 12.1421 5.90687 12.1145 5.95622 12.0947C6.00556 12.0749 6.05864 12.0643 6.11546 12.0643H6.80177C6.85859 12.0643 6.91092 12.0742 6.96101 12.0947C7.01036 12.1145 7.05372 12.1421 7.09035 12.1767C7.12698 12.2113 7.15614 12.2523 7.17708 12.299C7.19801 12.3456 7.20847 12.3951 7.20847 12.4481V12.6057C7.20847 12.6594 7.19801 12.7089 7.17708 12.7562C7.15614 12.8036 7.12698 12.8438 7.09035 12.8785C7.05372 12.9131 7.01036 12.9407 6.96101 12.9604C6.91167 12.9802 6.85859 12.9908 6.80177 12.9908H6.11546ZM5.86351 12.6057C5.86351 12.6389 5.87024 12.6693 5.88295 12.6983C5.89641 12.7272 5.91435 12.7527 5.93678 12.7739C5.95921 12.7951 5.98612 12.812 6.01677 12.8248C6.04743 12.8375 6.08032 12.8431 6.11471 12.8431H6.80102C6.83616 12.8431 6.86831 12.8368 6.89896 12.8248C6.92961 12.812 6.95653 12.7951 6.9797 12.7739C7.00288 12.7527 7.02082 12.7272 7.03428 12.6983C7.04774 12.6693 7.05372 12.6382 7.05372 12.6057V12.4481C7.05372 12.4163 7.04699 12.3852 7.03428 12.3562C7.02082 12.3272 7.00288 12.3018 6.9797 12.2799C6.95653 12.258 6.92961 12.241 6.89896 12.2283C6.86831 12.2156 6.83541 12.2099 6.80102 12.2099H6.11471C6.07957 12.2099 6.04743 12.2163 6.01677 12.2283C5.98612 12.241 5.95921 12.258 5.93678 12.2799C5.91435 12.3018 5.89641 12.3272 5.88295 12.3562C5.86949 12.3852 5.86351 12.4156 5.86351 12.4481V12.6057Z" fill="url(#paint8_linear_225_1301)"/>
<path d="M7.87815 12.9908C7.82134 12.9908 7.769 12.9809 7.71891 12.9604C7.66957 12.9407 7.62621 12.9131 7.58957 12.8785C7.55294 12.8438 7.52378 12.8028 7.50285 12.7562C7.48192 12.7096 7.4707 12.6594 7.4707 12.6057V12.4481C7.4707 12.3958 7.48117 12.3456 7.50285 12.299C7.52378 12.2523 7.55294 12.2113 7.58957 12.1767C7.62621 12.1421 7.66957 12.1145 7.71891 12.0947C7.76825 12.0749 7.82134 12.0643 7.87815 12.0643H8.56447C8.62129 12.0643 8.67362 12.0742 8.72371 12.0947C8.77305 12.1145 8.81641 12.1421 8.85305 12.1767C8.88968 12.2113 8.91884 12.2523 8.93977 12.299C8.9607 12.3456 8.97117 12.3951 8.97117 12.4481V12.6057C8.97117 12.6594 8.9607 12.7089 8.93977 12.7562C8.91884 12.8036 8.88968 12.8438 8.85305 12.8785C8.81641 12.9131 8.77305 12.9407 8.72371 12.9604C8.67437 12.9802 8.62129 12.9908 8.56447 12.9908H7.87815ZM7.62695 12.6057C7.62695 12.6389 7.63368 12.6693 7.64639 12.6983C7.65985 12.7272 7.67779 12.7527 7.70022 12.7739C7.72265 12.7951 7.74956 12.812 7.78022 12.8248C7.81087 12.8375 7.84376 12.8431 7.87815 12.8431H8.56447C8.5996 12.8431 8.63175 12.8368 8.6624 12.8248C8.69306 12.812 8.71997 12.7951 8.74315 12.7739C8.76632 12.7527 8.78427 12.7272 8.79772 12.6983C8.81118 12.6693 8.81716 12.6382 8.81716 12.6057V12.4481C8.81716 12.4163 8.81043 12.3852 8.79772 12.3562C8.78427 12.3272 8.76632 12.3018 8.74315 12.2799C8.71997 12.258 8.69306 12.241 8.6624 12.2283C8.63175 12.2156 8.59886 12.2099 8.56447 12.2099H7.87815C7.84302 12.2099 7.81087 12.2163 7.78022 12.2283C7.74956 12.241 7.72265 12.258 7.70022 12.2799C7.67779 12.3018 7.65985 12.3272 7.64639 12.3562C7.63294 12.3852 7.62695 12.4156 7.62695 12.4481V12.6057Z" fill="url(#paint9_linear_225_1301)"/>
<path d="M9.46022 12.2813C9.43779 12.3025 9.41984 12.3279 9.40639 12.3569C9.39293 12.3859 9.38695 12.417 9.38695 12.4495V12.4587H10.3858V12.6043H9.38695V12.9901H9.23145V12.4495C9.23145 12.3958 9.24191 12.3463 9.26285 12.2997C9.28378 12.2537 9.31294 12.2127 9.34957 12.1781C9.38695 12.1428 9.43031 12.1145 9.47965 12.0947C9.52825 12.0749 9.58133 12.0643 9.63815 12.0643H10.4448V12.2099H9.63815C9.60226 12.2099 9.56937 12.2163 9.53946 12.229C9.50956 12.2417 9.48264 12.2594 9.46022 12.2806V12.2813Z" fill="url(#paint10_linear_225_1301)"/>
<path d="M10.6729 12.9908V12.065H10.8284V12.9908H10.6729Z" fill="url(#paint11_linear_225_1301)"/>
<path d="M12.0243 12.9802C12.0108 12.9753 11.9989 12.9682 11.9877 12.9604C11.9764 12.9527 11.9645 12.9421 11.9525 12.9286C11.9024 12.8742 11.8508 12.817 11.7963 12.7562C11.7424 12.6954 11.6871 12.6346 11.6325 12.5732C11.5772 12.5117 11.5226 12.4509 11.4688 12.3908C11.415 12.3308 11.3634 12.2728 11.314 12.2177C11.3028 12.2071 11.2886 12.2014 11.2714 12.2014C11.2565 12.2014 11.243 12.205 11.2311 12.212C11.2191 12.2191 11.2131 12.2304 11.2116 12.2452V12.9901H11.0576V12.2339L11.0591 12.2297C11.0606 12.2021 11.0681 12.1774 11.0808 12.1548C11.0935 12.1329 11.11 12.1138 11.1301 12.099C11.1503 12.0841 11.1727 12.0721 11.1982 12.0643C11.2228 12.0565 11.2483 12.0523 11.2737 12.0523C11.3036 12.0523 11.3327 12.058 11.3604 12.0693C11.3881 12.0806 11.4127 12.099 11.4329 12.1244C11.5391 12.2431 11.6452 12.3611 11.7507 12.4785C11.8561 12.5958 11.9622 12.7145 12.0699 12.8339C12.0744 12.8382 12.0811 12.8424 12.0893 12.8459C12.0976 12.8495 12.105 12.8516 12.1125 12.8516C12.126 12.8516 12.1379 12.8474 12.1491 12.8396C12.1604 12.8318 12.1678 12.8212 12.1701 12.8078V12.0622H12.3256V12.8184C12.3226 12.8459 12.3151 12.8707 12.3017 12.8933C12.2882 12.9152 12.2725 12.935 12.2531 12.9505C12.2336 12.9668 12.2119 12.9788 12.1873 12.9873C12.1626 12.9958 12.1372 13 12.111 13C12.0968 13 12.0819 12.9986 12.0662 12.9951C12.0505 12.9922 12.0362 12.9866 12.0228 12.9795L12.0243 12.9802Z" fill="url(#paint12_linear_225_1301)"/>
<path d="M12.9643 12.9908C12.909 12.9908 12.8566 12.9809 12.8073 12.9604C12.7579 12.9406 12.7153 12.9131 12.6787 12.8784C12.6421 12.8438 12.6129 12.8028 12.5912 12.7562C12.5695 12.7095 12.5591 12.6593 12.5591 12.6056V12.448C12.5591 12.3957 12.5695 12.3463 12.5905 12.2996C12.6114 12.2537 12.6406 12.2127 12.6772 12.1781C12.7138 12.1434 12.7565 12.1159 12.8058 12.0954C12.8551 12.0749 12.9075 12.065 12.9643 12.065H13.5519V12.2106H12.9643C12.9306 12.2106 12.8978 12.2169 12.8678 12.229C12.8372 12.2417 12.8103 12.2586 12.7879 12.2798C12.7654 12.301 12.7475 12.3258 12.7333 12.3548C12.7198 12.383 12.7131 12.4134 12.7131 12.4459V12.6063C12.7131 12.6381 12.7198 12.6692 12.7325 12.6982C12.746 12.7272 12.7639 12.7526 12.7864 12.7745C12.8088 12.7965 12.835 12.8134 12.8656 12.8261C12.8955 12.8389 12.9277 12.8445 12.962 12.8445H13.4173C13.451 12.8445 13.4839 12.8381 13.5138 12.8261C13.5444 12.8134 13.5714 12.7965 13.5938 12.7753C13.6162 12.754 13.6342 12.7293 13.6484 12.7003C13.6618 12.6721 13.6685 12.6417 13.6685 12.6092V12.5986H13.2461V12.4516H13.824V12.6063C13.824 12.6586 13.8136 12.7088 13.7919 12.7555C13.771 12.8021 13.7418 12.8431 13.7052 12.8777C13.6685 12.9124 13.6252 12.9399 13.5758 12.9604C13.5265 12.9809 13.4734 12.9908 13.4166 12.9908H12.9643Z" fill="url(#paint13_linear_225_1301)"/>
<path d="M15.9509 12.448V12.5922H15.8193V12.9901H14.8826C14.8377 12.9901 14.7966 12.983 14.76 12.9689C14.7233 12.9548 14.6919 12.935 14.665 12.9109C14.6389 12.8862 14.6179 12.8579 14.6037 12.8247C14.5888 12.7915 14.582 12.7569 14.582 12.7194C14.582 12.682 14.5903 12.6466 14.6067 12.6127C14.6232 12.5788 14.6463 12.5498 14.6755 12.5244C14.6456 12.5025 14.6224 12.4742 14.606 12.4417C14.5903 12.4085 14.582 12.3738 14.582 12.3378C14.582 12.2876 14.5925 12.2466 14.6134 12.2141C14.6344 12.1816 14.6598 12.1555 14.6912 12.1357C14.7226 12.1159 14.7555 12.1025 14.7906 12.0947C14.8258 12.0869 14.8579 12.0834 14.8878 12.0834H15.8134V12.2275H14.8878C14.8691 12.2275 14.8504 12.2297 14.8325 12.2346C14.8145 12.2396 14.7981 12.2466 14.7831 12.2558C14.7682 12.265 14.7562 12.277 14.7473 12.2904C14.7383 12.3046 14.7338 12.3201 14.7338 12.3378C14.7338 12.3548 14.7383 12.3696 14.7473 12.383C14.7562 12.3964 14.7674 12.4078 14.7816 12.4169C14.7958 12.4261 14.8115 12.4339 14.8295 12.4389C14.8474 12.4445 14.8646 12.4466 14.8818 12.4466H15.9517L15.9509 12.448ZM15.6668 12.5936H14.8796C14.8601 12.5936 14.8407 12.5972 14.8228 12.6035C14.8048 12.6099 14.7891 12.6191 14.7764 12.6311C14.763 12.6424 14.7525 12.6565 14.7443 12.6721C14.736 12.6876 14.7323 12.7039 14.7323 12.7208C14.7323 12.7272 14.7345 12.7371 14.739 12.7519C14.7435 12.7668 14.751 12.7802 14.7622 12.7943C14.7734 12.8085 14.7884 12.8212 14.8071 12.8318C14.8258 12.8424 14.8497 12.848 14.8788 12.848H15.6661V12.5943L15.6668 12.5936Z" fill="url(#paint14_linear_225_1301)"/>
<path d="M17.9391 12.5647C17.9211 12.5823 17.9002 12.5972 17.877 12.6092C17.8538 12.6212 17.8292 12.6311 17.8037 12.6382C17.8254 12.6657 17.8486 12.6947 17.8725 12.7251C17.8964 12.7555 17.9211 12.7859 17.945 12.817C17.9697 12.8474 17.9936 12.8777 18.0168 12.9081C18.04 12.9378 18.0624 12.9654 18.0833 12.9915H17.8882L17.6198 12.6523H16.8752V12.9915H16.7212V12.0657H17.7133C17.7791 12.0657 17.8389 12.082 17.8912 12.1138C17.9353 12.1399 17.9705 12.1739 17.9974 12.217C18.0235 12.2601 18.037 12.3074 18.037 12.3576C18.037 12.3986 18.0288 12.4368 18.0116 12.4714C17.9944 12.5067 17.9705 12.5378 17.9398 12.5654V12.564L17.9391 12.5647ZM16.8752 12.5046H17.717C17.7387 12.5046 17.7596 12.5011 17.7798 12.4933C17.8 12.4855 17.8179 12.4749 17.8329 12.4622C17.8478 12.4488 17.8598 12.4332 17.8688 12.4156C17.8778 12.3979 17.8822 12.3788 17.8822 12.3583C17.8822 12.3378 17.8778 12.3187 17.868 12.3011C17.8583 12.2834 17.8464 12.2679 17.8307 12.2544C17.815 12.241 17.797 12.2304 17.7768 12.2233C17.7566 12.2163 17.735 12.212 17.7125 12.212H16.8745V12.506L16.8752 12.5046Z" fill="url(#paint15_linear_225_1301)"/>
<path d="M18.4785 12.2798C18.4561 12.3018 18.4382 12.3272 18.4247 12.3562C18.4113 12.3844 18.4053 12.4155 18.4053 12.4487V12.4551H19.4646V12.6021H18.4053V12.6085C18.4053 12.6403 18.412 12.6707 18.4247 12.6996C18.4382 12.7279 18.4561 12.7533 18.4793 12.7745C18.5025 12.7957 18.5294 12.8127 18.56 12.8254C18.5907 12.8381 18.6228 12.8438 18.6565 12.8438H19.4646V12.9908H18.6565C18.5997 12.9908 18.5473 12.9809 18.4972 12.9604C18.4479 12.9399 18.4045 12.9124 18.3679 12.8777C18.3313 12.8431 18.3021 12.8021 18.2812 12.7555C18.2602 12.7088 18.249 12.6593 18.249 12.6063V12.4487C18.249 12.395 18.2602 12.3456 18.2819 12.2989C18.3036 12.253 18.3328 12.212 18.3694 12.1774C18.406 12.1427 18.4494 12.1152 18.4987 12.0954C18.5481 12.0756 18.6004 12.065 18.6565 12.065H19.4646V12.2106H18.6565C18.6206 12.2106 18.5877 12.2169 18.5578 12.229C18.5279 12.2417 18.501 12.2586 18.4785 12.2798Z" fill="url(#paint16_linear_225_1301)"/>
<path d="M19.7332 12.9908V12.8438H20.6445C20.6625 12.8438 20.6789 12.841 20.6946 12.8346C20.7103 12.8283 20.7238 12.8198 20.735 12.8085C20.7462 12.7972 20.7552 12.7844 20.7619 12.7696C20.7686 12.7548 20.7716 12.7392 20.7716 12.7223C20.7716 12.6883 20.7597 12.6594 20.735 12.636C20.7103 12.6127 20.6804 12.6007 20.6445 12.6007H19.9665C19.9276 12.6007 19.8917 12.5936 19.8573 12.5802C19.8229 12.5668 19.793 12.547 19.7668 12.523C19.7407 12.4989 19.7205 12.47 19.7055 12.4375C19.6906 12.4049 19.6831 12.3703 19.6831 12.3329C19.6831 12.2954 19.6906 12.2608 19.7048 12.2283C19.719 12.1958 19.7399 12.1675 19.7653 12.1428C19.7908 12.118 19.8214 12.0989 19.8558 12.0848C19.8902 12.0707 19.9268 12.0636 19.9665 12.0636H20.8763V12.2092H19.9665C19.9298 12.2092 19.8999 12.2212 19.8767 12.2445C19.8536 12.2678 19.8409 12.2961 19.8379 12.3293C19.8409 12.3654 19.8543 12.395 19.8782 12.4191C19.9022 12.4431 19.9321 12.4551 19.9665 12.4551H20.6445C20.6834 12.4551 20.7193 12.4622 20.7537 12.4763C20.7881 12.4905 20.818 12.5095 20.8434 12.5336C20.8688 12.5576 20.889 12.5859 20.904 12.6184C20.9189 12.6509 20.9264 12.6855 20.9264 12.7215C20.9264 12.7576 20.9189 12.7943 20.9047 12.8268C20.8898 12.8601 20.8703 12.8883 20.8449 12.9124C20.8195 12.9364 20.7896 12.9555 20.7552 12.9696C20.7208 12.9837 20.6842 12.9908 20.6445 12.9908H19.7332Z" fill="url(#paint17_linear_225_1301)"/>
<path d="M22.2229 12.2106H21.6943V12.9908H21.5403V12.2106H21.0117V12.065H22.2229V12.2106Z" fill="url(#paint18_linear_225_1301)"/>
<path d="M22.7612 12.9908C22.7044 12.9908 22.6513 12.9809 22.602 12.9604C22.5526 12.9407 22.5092 12.9131 22.4726 12.8785C22.436 12.8438 22.4068 12.8028 22.3859 12.7562C22.365 12.7096 22.3545 12.6594 22.3545 12.6057V12.4481C22.3545 12.3958 22.365 12.3456 22.3859 12.299C22.4068 12.2523 22.436 12.2113 22.4726 12.1767C22.5092 12.1421 22.5526 12.1145 22.602 12.0947C22.6513 12.0749 22.7044 12.0643 22.7612 12.0643H23.4475C23.5043 12.0643 23.5574 12.0742 23.6068 12.0947C23.6561 12.1145 23.6995 12.1421 23.7361 12.1767C23.7727 12.2113 23.8019 12.2523 23.8228 12.299C23.8437 12.3456 23.855 12.3951 23.855 12.4481V12.6057C23.855 12.6594 23.8445 12.7089 23.8228 12.7562C23.8019 12.8028 23.7727 12.8438 23.7361 12.8785C23.6995 12.9131 23.6561 12.9407 23.6068 12.9604C23.5574 12.9802 23.5043 12.9908 23.4475 12.9908H22.7612ZM22.51 12.6057C22.51 12.6389 22.5167 12.6693 22.5294 12.6983C22.5421 12.7272 22.5608 12.7527 22.5833 12.7739C22.6057 12.7951 22.6326 12.812 22.6633 12.8248C22.6939 12.8375 22.7268 12.8431 22.7612 12.8431H23.4475C23.4826 12.8431 23.5148 12.8368 23.5454 12.8248C23.5761 12.812 23.603 12.7951 23.6262 12.7739C23.6494 12.7527 23.6673 12.7272 23.6808 12.6983C23.6942 12.6693 23.7002 12.6382 23.7002 12.6057V12.4481C23.7002 12.4163 23.6935 12.3852 23.6808 12.3562C23.6673 12.3272 23.6494 12.3018 23.6262 12.2799C23.603 12.258 23.5761 12.241 23.5454 12.2283C23.5148 12.2156 23.4819 12.2099 23.4475 12.2099H22.7612C22.7261 12.2099 22.6939 12.2163 22.6633 12.2283C22.6326 12.241 22.6057 12.258 22.5833 12.2799C22.5608 12.3018 22.5429 12.3272 22.5294 12.3562C22.516 12.3852 22.51 12.4156 22.51 12.4481V12.6057Z" fill="url(#paint19_linear_225_1301)"/>
<path d="M25.3194 12.5647C25.3015 12.5823 25.2806 12.5972 25.2574 12.6092C25.2335 12.6212 25.2095 12.6311 25.1841 12.6382C25.2058 12.6657 25.2282 12.6947 25.2529 12.7251C25.2768 12.7555 25.3015 12.7859 25.3254 12.817C25.3501 12.8474 25.374 12.8777 25.3972 12.9081C25.4204 12.9378 25.4428 12.9654 25.4637 12.9915H25.2686L25.0002 12.6523H24.2556V12.9915H24.1016V12.0657H25.0936C25.1594 12.0657 25.2192 12.082 25.2716 12.1138C25.3157 12.1399 25.3508 12.1739 25.3777 12.217C25.4039 12.2601 25.4174 12.3074 25.4174 12.3576C25.4174 12.3986 25.4091 12.4368 25.392 12.4714C25.3748 12.5067 25.3508 12.5378 25.3202 12.5654V12.564L25.3194 12.5647ZM24.2556 12.5046H25.0974C25.1191 12.5046 25.14 12.5011 25.1602 12.4933C25.1804 12.4855 25.1983 12.4749 25.2133 12.4622C25.2282 12.4488 25.2402 12.4332 25.2492 12.4156C25.2581 12.3979 25.2626 12.3788 25.2626 12.3583C25.2626 12.3378 25.2581 12.3187 25.2484 12.3011C25.2387 12.2834 25.2267 12.2679 25.211 12.2544C25.1953 12.241 25.1774 12.2304 25.1572 12.2233C25.137 12.2156 25.1153 12.212 25.0929 12.212H24.2548V12.506L24.2556 12.5046Z" fill="url(#paint20_linear_225_1301)"/>
<path d="M26.7735 12.1774C26.8101 12.2127 26.8393 12.2537 26.861 12.3003C26.8827 12.347 26.8939 12.3957 26.8939 12.4487V12.9908H26.7384V12.5887H25.7829V12.9908H25.6289V12.4487C25.6289 12.395 25.6394 12.3456 25.6611 12.2989C25.6827 12.253 25.7119 12.212 25.7485 12.1774C25.7852 12.1427 25.8278 12.1152 25.8771 12.0954C25.9257 12.0756 25.978 12.065 26.0341 12.065H26.4864C26.5417 12.065 26.5941 12.0749 26.6434 12.0954C26.692 12.1152 26.7354 12.1427 26.7735 12.1774ZM26.0319 12.2106C25.999 12.2106 25.9676 12.2169 25.9377 12.229C25.9078 12.2417 25.8816 12.2579 25.8592 12.2791C25.8367 12.3003 25.8188 12.3244 25.8046 12.3526C25.7904 12.3809 25.7837 12.4106 25.7829 12.4417H26.7384C26.7376 12.4106 26.7301 12.3809 26.7167 12.3526C26.7032 12.3244 26.6853 12.3003 26.6621 12.2791C26.6397 12.2579 26.6135 12.2417 26.5829 12.229C26.553 12.2162 26.5208 12.2106 26.4864 12.2106H26.0311H26.0319Z" fill="url(#paint21_linear_225_1301)"/>
<path d="M28.2058 12.2106H27.6772V12.9908H27.5232V12.2106H26.9946V12.065H28.2058V12.2106Z" fill="url(#paint22_linear_225_1301)"/>
<path d="M28.4058 12.9908V12.065H28.5613V12.9908H28.4058Z" fill="url(#paint23_linear_225_1301)"/>
<path d="M29.2011 12.9908C29.1443 12.9908 29.0912 12.9809 29.0419 12.9604C28.9926 12.9407 28.9492 12.9131 28.9126 12.8785C28.8759 12.8438 28.8468 12.8028 28.8258 12.7562C28.8049 12.7096 28.7944 12.6594 28.7944 12.6057V12.4481C28.7944 12.3958 28.8049 12.3456 28.8258 12.299C28.8468 12.2523 28.8759 12.2113 28.9126 12.1767C28.9492 12.1421 28.9926 12.1145 29.0419 12.0947C29.0912 12.0749 29.1443 12.0643 29.2011 12.0643H29.8874C29.9443 12.0643 29.9973 12.0742 30.0467 12.0947C30.096 12.1145 30.1394 12.1421 30.176 12.1767C30.2127 12.2113 30.2418 12.2523 30.2628 12.299C30.2837 12.3456 30.2949 12.3951 30.2949 12.4481V12.6057C30.2949 12.6594 30.2844 12.7089 30.2628 12.7562C30.2418 12.8028 30.2127 12.8438 30.176 12.8785C30.1394 12.9131 30.096 12.9407 30.0467 12.9604C29.9973 12.9802 29.9443 12.9908 29.8874 12.9908H29.2011ZM28.9492 12.6057C28.9492 12.6389 28.9559 12.6693 28.9686 12.6983C28.9813 12.7272 29 12.7527 29.0225 12.7739C29.0449 12.7951 29.0718 12.812 29.1025 12.8248C29.1331 12.8375 29.166 12.8431 29.2004 12.8431H29.8867C29.9218 12.8431 29.954 12.8368 29.9846 12.8248C30.0153 12.812 30.0422 12.7951 30.0654 12.7739C30.0886 12.7527 30.1065 12.7272 30.12 12.6983C30.1334 12.6693 30.1394 12.6382 30.1394 12.6057V12.4481C30.1394 12.4163 30.1327 12.3852 30.12 12.3562C30.1065 12.3272 30.0886 12.3018 30.0654 12.2799C30.0422 12.258 30.0153 12.241 29.9846 12.2283C29.954 12.2156 29.9211 12.2099 29.8867 12.2099H29.2004C29.1653 12.2099 29.1331 12.2163 29.1025 12.2283C29.0718 12.241 29.0449 12.258 29.0225 12.2799C29 12.3018 28.9821 12.3272 28.9686 12.3562C28.9552 12.3852 28.9492 12.4156 28.9492 12.4481V12.6057Z" fill="url(#paint24_linear_225_1301)"/>
<path d="M31.5209 12.9802C31.5074 12.9753 31.4954 12.9682 31.4842 12.9604C31.473 12.9527 31.4611 12.9421 31.4491 12.9286C31.399 12.8742 31.3474 12.817 31.2928 12.7562C31.239 12.6954 31.1844 12.6346 31.1291 12.5732C31.0738 12.5117 31.0192 12.4509 30.9654 12.3908C30.9116 12.3308 30.86 12.2728 30.8106 12.2177C30.7994 12.2071 30.7852 12.2014 30.768 12.2014C30.7531 12.2014 30.7396 12.205 30.7276 12.212C30.7157 12.2191 30.7097 12.2304 30.7082 12.2452V12.9901H30.5542V12.2339L30.5557 12.2297C30.5579 12.2021 30.5647 12.1774 30.5774 12.1548C30.5901 12.1322 30.6065 12.1138 30.6267 12.099C30.6469 12.0841 30.6693 12.0721 30.6948 12.0643C30.7194 12.0565 30.7448 12.0523 30.7703 12.0523C30.8002 12.0523 30.8293 12.058 30.857 12.0693C30.8846 12.0806 30.9093 12.099 30.9295 12.1244C31.0357 12.2431 31.1418 12.3611 31.2472 12.4785C31.3527 12.5958 31.4596 12.7145 31.5665 12.8339C31.571 12.8382 31.5777 12.8424 31.5859 12.8459C31.5941 12.8495 31.6016 12.8516 31.6091 12.8516C31.6225 12.8516 31.6345 12.8474 31.6457 12.8396C31.6569 12.8318 31.6644 12.8212 31.6667 12.8078V12.0622H31.8222V12.8184C31.8192 12.8459 31.8109 12.8707 31.7982 12.8933C31.7855 12.9159 31.7691 12.935 31.7496 12.9505C31.7302 12.9668 31.7085 12.9788 31.6838 12.9873C31.6592 12.9958 31.6338 13 31.6076 13C31.5934 13 31.5784 12.9986 31.5627 12.9951C31.547 12.9922 31.5328 12.9866 31.5194 12.9795L31.5209 12.9802Z" fill="url(#paint25_linear_225_1301)"/>
<path d="M17.8569 2.18019L12.4053 5.99291H13.2134L13.8631 5.53849L17.9997 2.6452L21.6869 5.224L22.7867 5.99291H23.5949L17.9997 2.07983L17.8569 2.18019Z" fill="url(#paint26_linear_225_1301)"/>
<path d="M15.7837 1.54982L17.7813 0.153357L17.9996 0L26.5688 5.99293H25.3315L23.6471 4.81484L18.0003 0.865724L11.6635 5.29682L10.6685 5.99293H9.43115L15.2289 1.93781L15.7837 1.54982Z" fill="url(#paint27_linear_225_1301)"/>
<path d="M17.9116 4.35266H17.3599V4.87422H17.9116V4.35266Z" fill="url(#paint28_linear_225_1301)"/>
<path d="M17.9116 5.04242H17.3599V5.56397H17.9116V5.04242Z" fill="url(#paint29_linear_225_1301)"/>
<path d="M18.6406 4.35266H18.0889V4.87422H18.6406V4.35266Z" fill="url(#paint30_linear_225_1301)"/>
<path d="M18.6406 5.04242H18.0889V5.56397H18.6406V5.04242Z" fill="url(#paint31_linear_225_1301)"/>
<path d="M36.0002 12.4834H33.1675V12.5696H36.0002V12.4834Z" fill="url(#paint32_linear_225_1301)"/>
<path d="M2.83272 12.4834H0V12.5696H2.83272V12.4834Z" fill="url(#paint33_linear_225_1301)"/>
</g>
<defs>
<linearGradient id="paint0_linear_225_1301" x1="2.29444" y1="2.5053" x2="2.29444" y2="14.7738" gradientUnits="userSpaceOnUse">
<stop stop-color="#2E429B"/>
<stop offset="1" stop-color="#18FAF8"/>
</linearGradient>
<linearGradient id="paint1_linear_225_1301" x1="7.73483" y1="2.5053" x2="7.73483" y2="14.7739" gradientUnits="userSpaceOnUse">
<stop stop-color="#2E429B"/>
<stop offset="1" stop-color="#18FAF8"/>
</linearGradient>
<linearGradient id="paint2_linear_225_1301" x1="13.1553" y1="2.5053" x2="13.1553" y2="14.7739" gradientUnits="userSpaceOnUse">
<stop stop-color="#2E429B"/>
<stop offset="1" stop-color="#18FAF8"/>
</linearGradient>
<linearGradient id="paint3_linear_225_1301" x1="18.4522" y1="2.50531" x2="18.4522" y2="14.7739" gradientUnits="userSpaceOnUse">
<stop stop-color="#2E429B"/>
<stop offset="1" stop-color="#18FAF8"/>
</linearGradient>
<linearGradient id="paint4_linear_225_1301" x1="33.8362" y1="2.50531" x2="33.8362" y2="14.7739" gradientUnits="userSpaceOnUse">
<stop stop-color="#2E429B"/>
<stop offset="1" stop-color="#18FAF8"/>
</linearGradient>
<linearGradient id="paint5_linear_225_1301" x1="23.8101" y1="2.5053" x2="23.8101" y2="14.7739" gradientUnits="userSpaceOnUse">
<stop stop-color="#2E429B"/>
<stop offset="1" stop-color="#18FAF8"/>
</linearGradient>
<linearGradient id="paint6_linear_225_1301" x1="28.561" y1="2.5053" x2="28.561" y2="14.7739" gradientUnits="userSpaceOnUse">
<stop stop-color="#2E429B"/>
<stop offset="1" stop-color="#18FAF8"/>
</linearGradient>
<linearGradient id="paint7_linear_225_1301" x1="4.85784" y1="11.1809" x2="4.85784" y2="14.1831" gradientUnits="userSpaceOnUse">
<stop stop-color="white"/>
<stop offset="1"/>
</linearGradient>
<linearGradient id="paint8_linear_225_1301" x1="6.45862" y1="11.1809" x2="6.45862" y2="14.1831" gradientUnits="userSpaceOnUse">
<stop stop-color="white"/>
<stop offset="1"/>
</linearGradient>
<linearGradient id="paint9_linear_225_1301" x1="8.22131" y1="11.1809" x2="8.22131" y2="14.1831" gradientUnits="userSpaceOnUse">
<stop stop-color="white"/>
<stop offset="1"/>
</linearGradient>
<linearGradient id="paint10_linear_225_1301" x1="9.83851" y1="11.1809" x2="9.83851" y2="14.1831" gradientUnits="userSpaceOnUse">
<stop stop-color="white"/>
<stop offset="1"/>
</linearGradient>
<linearGradient id="paint11_linear_225_1301" x1="10.7506" y1="11.1809" x2="10.7506" y2="14.183" gradientUnits="userSpaceOnUse">
<stop stop-color="white"/>
<stop offset="1"/>
</linearGradient>
<linearGradient id="paint12_linear_225_1301" x1="11.6923" y1="11.1809" x2="11.6923" y2="14.183" gradientUnits="userSpaceOnUse">
<stop stop-color="white"/>
<stop offset="1"/>
</linearGradient>
<linearGradient id="paint13_linear_225_1301" x1="13.1916" y1="11.1809" x2="13.1916" y2="14.183" gradientUnits="userSpaceOnUse">
<stop stop-color="white"/>
<stop offset="1"/>
</linearGradient>
<linearGradient id="paint14_linear_225_1301" x1="15.2668" y1="11.1809" x2="15.2668" y2="14.183" gradientUnits="userSpaceOnUse">
<stop stop-color="white"/>
<stop offset="1"/>
</linearGradient>
<linearGradient id="paint15_linear_225_1301" x1="17.4023" y1="11.1809" x2="17.4023" y2="14.1831" gradientUnits="userSpaceOnUse">
<stop stop-color="white"/>
<stop offset="1"/>
</linearGradient>
<linearGradient id="paint16_linear_225_1301" x1="18.8568" y1="11.1809" x2="18.8568" y2="14.183" gradientUnits="userSpaceOnUse">
<stop stop-color="white"/>
<stop offset="1"/>
</linearGradient>
<linearGradient id="paint17_linear_225_1301" x1="20.3051" y1="11.1809" x2="20.3051" y2="14.183" gradientUnits="userSpaceOnUse">
<stop stop-color="white"/>
<stop offset="1"/>
</linearGradient>
<linearGradient id="paint18_linear_225_1301" x1="21.6173" y1="11.1809" x2="21.6173" y2="14.183" gradientUnits="userSpaceOnUse">
<stop stop-color="white"/>
<stop offset="1"/>
</linearGradient>
<linearGradient id="paint19_linear_225_1301" x1="23.1044" y1="11.1809" x2="23.1044" y2="14.1831" gradientUnits="userSpaceOnUse">
<stop stop-color="white"/>
<stop offset="1"/>
</linearGradient>
<linearGradient id="paint20_linear_225_1301" x1="24.7826" y1="11.1809" x2="24.7826" y2="14.1831" gradientUnits="userSpaceOnUse">
<stop stop-color="white"/>
<stop offset="1"/>
</linearGradient>
<linearGradient id="paint21_linear_225_1301" x1="26.2614" y1="11.1809" x2="26.2614" y2="14.183" gradientUnits="userSpaceOnUse">
<stop stop-color="white"/>
<stop offset="1"/>
</linearGradient>
<linearGradient id="paint22_linear_225_1301" x1="27.6002" y1="11.1809" x2="27.6002" y2="14.183" gradientUnits="userSpaceOnUse">
<stop stop-color="white"/>
<stop offset="1"/>
</linearGradient>
<linearGradient id="paint23_linear_225_1301" x1="28.4835" y1="11.1809" x2="28.4835" y2="14.183" gradientUnits="userSpaceOnUse">
<stop stop-color="white"/>
<stop offset="1"/>
</linearGradient>
<linearGradient id="paint24_linear_225_1301" x1="29.5443" y1="11.1809" x2="29.5443" y2="14.1831" gradientUnits="userSpaceOnUse">
<stop stop-color="white"/>
<stop offset="1"/>
</linearGradient>
<linearGradient id="paint25_linear_225_1301" x1="31.1889" y1="11.1809" x2="31.1889" y2="14.183" gradientUnits="userSpaceOnUse">
<stop stop-color="white"/>
<stop offset="1"/>
</linearGradient>
<linearGradient id="paint26_linear_225_1301" x1="2.96661" y1="-0.884123" x2="36.8169" y2="14.3503" gradientUnits="userSpaceOnUse">
<stop stop-color="#2E429B"/>
<stop offset="1" stop-color="#18FAF8"/>
</linearGradient>
<linearGradient id="paint27_linear_225_1301" x1="3.13472" y1="-1.25866" x2="36.985" y2="13.9757" gradientUnits="userSpaceOnUse">
<stop stop-color="#2E429B"/>
<stop offset="1" stop-color="#18FAF8"/>
</linearGradient>
<linearGradient id="paint28_linear_225_1301" x1="17.0556" y1="4.1781" x2="19.2112" y2="5.98744" gradientUnits="userSpaceOnUse">
<stop stop-color="white"/>
<stop offset="1"/>
</linearGradient>
<linearGradient id="paint29_linear_225_1301" x1="16.6997" y1="4.60143" x2="18.8561" y2="6.4108" gradientUnits="userSpaceOnUse">
<stop stop-color="white"/>
<stop offset="1"/>
</linearGradient>
<linearGradient id="paint30_linear_225_1301" x1="17.3375" y1="3.84241" x2="19.4931" y2="5.65175" gradientUnits="userSpaceOnUse">
<stop stop-color="white"/>
<stop offset="1"/>
</linearGradient>
<linearGradient id="paint31_linear_225_1301" x1="16.9816" y1="4.26574" x2="19.138" y2="6.07511" gradientUnits="userSpaceOnUse">
<stop stop-color="white"/>
<stop offset="1"/>
</linearGradient>
<linearGradient id="paint32_linear_225_1301" x1="34.5842" y1="11.1809" x2="34.5842" y2="14.183" gradientUnits="userSpaceOnUse">
<stop stop-color="white"/>
<stop offset="1"/>
</linearGradient>
<linearGradient id="paint33_linear_225_1301" x1="1.41599" y1="11.1809" x2="1.41599" y2="14.183" gradientUnits="userSpaceOnUse">
<stop stop-color="white"/>
<stop offset="1"/>
</linearGradient>
<clipPath id="clip0_225_1301">
<rect width="36" height="13" fill="white"/>
</clipPath>
</defs>
</svg>
